<?xml version="1.0" standalone="no"?>
<!DOCTYPE svg PUBLIC "-//W3C//DTD SVG 20010904//EN"
 "http://www.w3.org/TR/2001/REC-SVG-20010904/DTD/svg10.dtd">
<svg version="1.0" xmlns="http://www.w3.org/2000/svg"
 width="400.000000pt" height="400.000000pt" viewBox="0 0 400.000000 400.000000"
 preserveAspectRatio="xMidYMid meet">
<metadata>
Created by potrace 1.11, written by Peter Selinger 2001-2013
</metadata>
<g transform="translate(0.000000,400.000000) scale(0.100000,-0.100000)"
fill="#000000" stroke="none">
<path d="M1750 3185 c-151 -21 -215 -35 -345 -75 -561 -171 -1029 -600 -1254
-1148 -54 -133 -104 -310 -127 -447 -26 -164 -26 -451 2 -640 16 -114 102
-405 142 -481 5 -10 23 -46 38 -79 30 -62 102 -186 157 -267 l32 -47 1600 -1
1600 0 66 103 c175 269 281 563 317 872 15 128 7 434 -14 550 -53 294 -151
543 -310 782 -41 61 -80 118 -86 125 -7 7 -34 38 -59 68 -190 224 -444 414
-709 530 -70 31 -227 88 -260 95 -8 2 -53 12 -100 23 -47 11 -107 24 -135 27
-27 4 -59 10 -70 12 -50 11 -397 10 -485 -2z"/>
</g>
</svg>
